<svg width="24" height="24" viewBox="0 0 24 24" fill="none" xmlns="http://www.w3.org/2000/svg">
<mask id="path-1-inside-1_1439_969" fill="white">
<path d="M19.6123 5.52865C19.1725 5.08021 18.6502 4.72447 18.0755 4.48177C17.5007 4.23906 16.8847 4.11414 16.2625 4.11414C15.6404 4.11414 15.0243 4.23906 14.4496 4.48177C13.8748 4.72447 13.3526 5.08021 12.9128 5.52865L12 6.45889L11.0872 5.52865C10.1988 4.62325 8.99389 4.11461 7.73749 4.11461C6.4811 4.11461 5.27616 4.62325 4.38775 5.52865C3.49935 6.43405 3.00024 7.66203 3.00024 8.94246C3.00024 10.2229 3.49935 11.4509 4.38775 12.3563L5.30053 13.2865L12 20.1141L18.6995 13.2865L19.6123 12.3563C20.0523 11.908 20.4014 11.3758 20.6395 10.7901C20.8777 10.2043 21.0002 9.57651 21.0002 8.94246C21.0002 8.30842 20.8777 7.68058 20.6395 7.09483C20.4014 6.50908 20.0523 5.97688 19.6123 5.52865Z"/>
</mask>
<path d="M19.6123 5.52865L-64.6324 88.1534L-64.613 88.1731L-64.5936 88.1929L19.6123 5.52865ZM16.2625 4.11414V122.114V4.11414ZM12.9128 5.52865L97.138 88.1731L97.1477 88.1633L97.1574 88.1534L12.9128 5.52865ZM12 6.45889L-72.2252 89.1034L12 174.94L96.2252 89.1034L12 6.45889ZM11.0872 5.52865L-73.138 88.1731L-73.138 88.1731L11.0872 5.52865ZM4.38775 12.3563L-79.8375 95.0008L4.38775 12.3563ZM5.30053 13.2865L-78.9247 95.931L5.30053 13.2865ZM12 20.1141L-72.2252 102.759L12 188.595L96.2253 102.759L12 20.1141ZM19.6123 12.3563L-64.5936 -70.308L-64.6033 -70.2981L-64.613 -70.2882L19.6123 12.3563ZM19.6123 5.52865L103.857 -77.0961C92.5636 -88.6108 79.0332 -97.8666 63.9792 -104.224L18.0755 4.48177L-27.8282 113.187C-41.7327 107.316 -54.2187 98.7712 -64.6324 88.1534L19.6123 5.52865ZM18.0755 4.48177L63.9792 -104.224C48.9202 -110.583 32.6991 -113.886 16.2625 -113.886V4.11414V122.114C1.07026 122.114 -13.9188 119.061 -27.8282 113.187L18.0755 4.48177ZM16.2625 4.11414V-113.886C-0.173968 -113.886 -16.3951 -110.583 -31.4541 -104.224L14.4496 4.48177L60.3533 113.187C46.4438 119.061 31.4548 122.114 16.2625 122.114V4.11414ZM14.4496 4.48177L-31.4541 -104.224C-46.5082 -97.8666 -60.0386 -88.6107 -71.3318 -77.0961L12.9128 5.52865L97.1574 88.1534C86.7438 98.7712 74.2578 107.316 60.3533 113.187L14.4496 4.48177ZM12.9128 5.52865L-71.3124 -77.1158L-72.2252 -76.1856L12 6.45889L96.2252 89.1034L97.138 88.1731L12.9128 5.52865ZM12 6.45889L96.2252 -76.1856L95.3124 -77.1158L11.0872 5.52865L-73.138 88.1731L-72.2252 89.1034L12 6.45889ZM11.0872 5.52865L95.3125 -77.1158C72.4744 -100.391 41.0186 -113.885 7.73749 -113.885L7.73749 4.11461L7.73749 122.115C-23.0309 122.115 -52.0768 109.637 -73.138 88.1731L11.0872 5.52865ZM7.73749 4.11461L7.73749 -113.885C-25.5436 -113.885 -56.9994 -100.391 -79.8375 -77.1158L4.38775 5.52865L88.613 88.1731C67.5518 109.637 38.5058 122.115 7.73749 122.115L7.73749 4.11461ZM4.38775 5.52865L-79.8375 -77.1158C-102.601 -53.9168 -115 -22.9197 -115 8.94246L3.00024 8.94246L121 8.94246C121 38.2438 109.6 66.7849 88.613 88.1731L4.38775 5.52865ZM3.00024 8.94246L-115 8.94246C-115 40.8046 -102.601 71.8017 -79.8375 95.0008L4.38775 12.3563L88.613 -70.2882C109.6 -48.9 121 -20.3588 121 8.94246L3.00024 8.94246ZM4.38775 12.3563L-79.8375 95.0008L-78.9247 95.931L5.30053 13.2865L89.5258 -69.358L88.613 -70.2882L4.38775 12.3563ZM5.30053 13.2865L-78.9247 95.931L-72.2252 102.759L12 20.1141L96.2252 -62.5303L89.5258 -69.358L5.30053 13.2865ZM12 20.1141L96.2253 102.759L102.925 95.931L18.6995 13.2865L-65.5257 -69.358L-72.2252 -62.5303L12 20.1141ZM18.6995 13.2865L102.925 95.931L103.838 95.0008L19.6123 12.3563L-64.613 -70.2882L-65.5257 -69.358L18.6995 13.2865ZM19.6123 12.3563L103.818 95.0205C115.112 83.5155 123.956 69.9764 129.95 55.233L20.6395 10.7901L-88.6712 -33.6528C-83.1532 -47.2247 -75.0078 -59.6995 -64.5936 -70.308L19.6123 12.3563ZM20.6395 10.7901L129.95 55.233C135.943 40.4934 139 24.7702 139 8.94246H21.0002H-96.9998C-96.9998 -5.61717 -94.1876 -20.0847 -88.6712 -33.6528L20.6395 10.7901ZM21.0002 8.94246H139C139 -6.88526 135.943 -22.6085 129.95 -37.3481L20.6395 7.09483L-88.6712 51.5378C-94.1876 37.9696 -96.9998 23.5021 -96.9998 8.94246H21.0002ZM20.6395 7.09483L129.95 -37.3481C123.956 -52.0915 115.112 -65.6306 103.818 -77.1356L19.6123 5.52865L-64.5936 88.1929C-75.0078 77.5844 -83.1532 65.1097 -88.6712 51.5378L20.6395 7.09483Z" fill="#F37021" mask="url(#path-1-inside-1_1439_969)"/>
</svg>
