<svg width="24" height="24" viewBox="0 0 24 24" fill="none" xmlns="http://www.w3.org/2000/svg">
<path d="M19.6123 5.52865C19.1725 5.08021 18.6502 4.72447 18.0755 4.48177C17.5007 4.23906 16.8847 4.11414 16.2625 4.11414C15.6404 4.11414 15.0243 4.23906 14.4496 4.48177C13.8748 4.72447 13.3526 5.08021 12.9128 5.52865L12 6.45889L11.0872 5.52865C10.1988 4.62325 8.99389 4.11461 7.73749 4.11461C6.4811 4.11461 5.27616 4.62325 4.38775 5.52865C3.49935 6.43405 3.00024 7.66203 3.00024 8.94246C3.00024 10.2229 3.49935 11.4509 4.38775 12.3563L5.30053 13.2865L12 20.1141L18.6995 13.2865L19.6123 12.3563C20.0523 11.908 20.4014 11.3758 20.6395 10.7901C20.8777 10.2043 21.0002 9.57651 21.0002 8.94246C21.0002 8.30842 20.8777 7.68058 20.6395 7.09483C20.4014 6.50908 20.0523 5.97688 19.6123 5.52865Z" stroke="black"/>
</svg>
