<svg width="24" height="24" viewBox="0 0 24 24" fill="none" xmlns="http://www.w3.org/2000/svg">
<path d="M19.6123 5.5286C19.1725 5.08015 18.6502 4.72442 18.0755 4.48171C17.5007 4.239 16.8847 4.11408 16.2625 4.11408C15.6404 4.11408 15.0243 4.239 14.4496 4.48171C13.8748 4.72442 13.3526 5.08015 12.9128 5.5286L12 6.45884L11.0872 5.5286C10.1988 4.6232 8.99389 4.11455 7.73749 4.11455C6.4811 4.11455 5.27616 4.6232 4.38775 5.5286C3.49935 6.434 3.00024 7.66198 3.00024 8.94241C3.00024 10.2228 3.49935 11.4508 4.38775 12.3562L5.30053 13.2865L12 20.1141L18.6995 13.2865L19.6123 12.3562C20.0523 11.908 20.4014 11.3758 20.6395 10.79C20.8777 10.2043 21.0002 9.57645 21.0002 8.94241C21.0002 8.30836 20.8777 7.68053 20.6395 7.09478C20.4014 6.50902 20.0523 5.97683 19.6123 5.5286Z" stroke="black"/>
</svg>
