<svg width="24" height="24" viewBox="0 0 24 24" fill="none" xmlns="http://www.w3.org/2000/svg">
<g opacity="0.8">
<path d="M19.612 5.52853C19.1722 5.08009 18.65 4.72435 18.0752 4.48164C17.5005 4.23894 16.8844 4.11401 16.2623 4.11401C15.6401 4.11401 15.0241 4.23894 14.4493 4.48164C13.8746 4.72435 13.3524 5.08009 12.9126 5.52853L11.9998 6.45877L11.087 5.52853C10.1986 4.62313 8.99364 4.11448 7.73725 4.11448C6.48085 4.11448 5.27591 4.62313 4.38751 5.52853C3.4991 6.43393 3 7.66191 3 8.94234C3 10.2228 3.4991 11.4508 4.38751 12.3562L5.30029 13.2864L11.9998 20.114L18.6992 13.2864L19.612 12.3562C20.0521 11.9079 20.4011 11.3757 20.6393 10.79C20.8774 10.2042 21 9.57639 21 8.94234C21 8.3083 20.8774 7.68046 20.6393 7.09471C20.4011 6.50896 20.0521 5.97676 19.612 5.52853Z" stroke="#434343"/>
</g>
</svg>
